<?xml version="1.0" encoding="UTF-8" standalone="no"?>
<svg
   xmlns:dc="http://purl.org/dc/elements/1.1/"
   xmlns:cc="http://creativecommons.org/ns#"
   xmlns:rdf="http://www.w3.org/1999/02/22-rdf-syntax-ns#"
   xmlns:svg="http://www.w3.org/2000/svg"
   xmlns="http://www.w3.org/2000/svg"
   version="1.1"
   id="svg2"
   viewBox="0 0 500.00001 375"
   height="375"
   width="500">
  <defs
     id="defs4" />
  <metadata
     id="metadata7">
    <rdf:RDF>
      <cc:Work
         rdf:about="">
        <dc:format>image/svg+xml</dc:format>
        <dc:type
           rdf:resource="http://purl.org/dc/dcmitype/StillImage" />
        <dc:title></dc:title>
      </cc:Work>
    </rdf:RDF>
  </metadata>
  <g
     transform="translate(0,-677.36219)"
     id="layer1">
    <rect
       y="677.36218"
       x="0"
       height="375"
       width="125"
       id="rect8068"
       style="color:#000000;clip-rule:nonzero;display:inline;overflow:visible;visibility:visible;opacity:1;isolation:auto;mix-blend-mode:normal;color-interpolation:sRGB;color-interpolation-filters:linearRGB;solid-color:#000000;solid-opacity:1;fill:#2c5aa0;fill-opacity:1;fill-rule:nonzero;stroke:none;stroke-width:7;stroke-linecap:butt;stroke-linejoin:miter;stroke-miterlimit:4;stroke-dasharray:none;stroke-dashoffset:0;stroke-opacity:1;color-rendering:auto;image-rendering:auto;shape-rendering:auto;text-rendering:auto;enable-background:accumulate" />
    <rect
       y="677.36218"
       x="124.62863"
       height="375"
       width="125"
       id="rect8068-3"
       style="color:#000000;clip-rule:nonzero;display:inline;overflow:visible;visibility:visible;opacity:1;isolation:auto;mix-blend-mode:normal;color-interpolation:sRGB;color-interpolation-filters:linearRGB;solid-color:#000000;solid-opacity:1;fill:#007ee6;fill-opacity:1;fill-rule:nonzero;stroke:none;stroke-width:7;stroke-linecap:butt;stroke-linejoin:miter;stroke-miterlimit:4;stroke-dasharray:none;stroke-dashoffset:0;stroke-opacity:1;color-rendering:auto;image-rendering:auto;shape-rendering:auto;text-rendering:auto;enable-background:accumulate" />
    <rect
       y="677.36218"
       x="249.25728"
       height="375"
       width="125"
       id="rect8068-3-6"
       style="color:#000000;clip-rule:nonzero;display:inline;overflow:visible;visibility:visible;opacity:1;isolation:auto;mix-blend-mode:normal;color-interpolation:sRGB;color-interpolation-filters:linearRGB;solid-color:#000000;solid-opacity:1;fill:#216778;fill-opacity:1;fill-rule:nonzero;stroke:none;stroke-width:7;stroke-linecap:butt;stroke-linejoin:miter;stroke-miterlimit:4;stroke-dasharray:none;stroke-dashoffset:0;stroke-opacity:1;color-rendering:auto;image-rendering:auto;shape-rendering:auto;text-rendering:auto;enable-background:accumulate" />
    <rect
       y="677.36218"
       x="373.88589"
       height="375"
       width="125"
       id="rect8068-3-7"
       style="color:#000000;clip-rule:nonzero;display:inline;overflow:visible;visibility:visible;opacity:1;isolation:auto;mix-blend-mode:normal;color-interpolation:sRGB;color-interpolation-filters:linearRGB;solid-color:#000000;solid-opacity:1;fill:#1a74b0;fill-opacity:1;fill-rule:nonzero;stroke:none;stroke-width:7;stroke-linecap:butt;stroke-linejoin:miter;stroke-miterlimit:4;stroke-dasharray:none;stroke-dashoffset:0;stroke-opacity:1;color-rendering:auto;image-rendering:auto;shape-rendering:auto;text-rendering:auto;enable-background:accumulate" />
    <text
       id="text8127"
       y="899.22882"
       x="139.38829"
       style="font-style:normal;font-weight:normal;font-size:95.48068237px;line-height:125%;font-family:sans-serif;text-align:start;letter-spacing:0px;word-spacing:0px;text-anchor:start;fill:#000000;fill-opacity:1;stroke:none;stroke-width:1px;stroke-linecap:butt;stroke-linejoin:miter;stroke-opacity:1"
       xml:space="preserve"><tspan
         style="font-style:normal;font-variant:normal;font-weight:normal;font-stretch:normal;font-family:FontAwesome;-inkscape-font-specification:FontAwesome;fill:#ffffff;fill-opacity:1"
         y="899.22882"
         x="139.38829"
         id="tspan8129"></tspan></text>
    <text
       id="text8127-9"
       y="898.96246"
       x="7.93961"
       style="font-style:normal;font-weight:normal;font-size:95.48068237px;line-height:125%;font-family:sans-serif;text-align:start;letter-spacing:0px;word-spacing:0px;text-anchor:start;fill:#000000;fill-opacity:1;stroke:none;stroke-width:1px;stroke-linecap:butt;stroke-linejoin:miter;stroke-opacity:1"
       xml:space="preserve"><tspan
         style="font-style:normal;font-variant:normal;font-weight:normal;font-stretch:normal;font-family:FontAwesome;-inkscape-font-specification:FontAwesome;fill:#ffffff;fill-opacity:1"
         y="898.96246"
         x="7.93961"
         id="tspan8129-1"></tspan></text>
    <path
       style="fill:#ffffff;fill-opacity:1"
       d="m 490.88092,886.2508 -11.22691,-13.7709 11.24075,-13.79767 c 1.4209,-1.82001 1.01358,-4.36147 -0.94836,-5.71161 -1.96431,-1.36193 -4.72022,-1.01287 -6.24012,0.75326 l 0,-0.003 -9.67044,11.85203 -9.66216,-11.85203 0,0.003 c -1.50412,-1.7661 -4.27736,-2.11519 -6.23569,-0.75326 -1.95833,1.35133 -2.36752,3.89165 -0.93946,5.71161 l -0.005,0 11.22036,13.79767 -11.22036,13.7709 0.005,0 c -1.4281,1.82562 -1.01887,4.35937 0.93946,5.71507 1.95833,1.3562 4.73157,1.01091 6.23569,-0.75781 l 9.66216,-11.8357 9.65677,11.8357 c 1.52145,1.76872 4.27678,2.11403 6.24089,0.75781 1.96219,-1.35561 2.37137,-3.88934 0.94767,-5.71507 m -52.70287,-1.35466 c -6.84446,0 -12.3944,-5.54476 -12.3944,-12.3892 0,-6.83888 5.54974,-12.38229 12.3944,-12.38229 6.84177,0 12.38862,5.54341 12.38862,12.38229 0,6.84444 -5.54685,12.3892 -12.38862,12.3892 m -36.49534,0 c -6.84312,0 -12.39689,-5.54322 -12.39689,-12.38669 0,-6.84139 5.55377,-12.38498 12.39689,-12.38498 6.84235,0 12.3844,5.54339 12.3844,12.38228 0,6.84445 -5.54205,12.3892 -12.3844,12.3892 m 36.49534,-33.04058 c -7.90379,0 -14.78174,4.44576 -18.24574,10.97323 -3.46477,-6.52747 -10.33945,-10.97323 -18.24882,-10.97323 -4.64439,0 -8.93484,1.53611 -12.3969,4.13108 l 0,-17.4012 c -0.0406,-2.24724 -1.87444,-4.04717 -4.13091,-4.04717 -2.25626,0 -4.07218,1.80003 -4.12395,4.04852 l 0,34.26658 0.005,0 c 0.18194,11.24962 9.35037,20.31281 20.64772,20.31281 7.90918,0 14.78386,-4.44979 18.24883,-10.97092 3.46398,6.52113 10.34194,10.97092 18.24574,10.97092 11.40338,0 20.65349,-9.247 20.65349,-20.65924 0,-11.40649 -9.25068,-20.65158 -20.65349,-20.65158"
       id="path4185" />
    <g
       style="fill:#ffffff;fill-opacity:1"
       id="g3"
       transform="matrix(0.16393978,0,0,0.16393978,265.45979,819.71317)">
      <g
         style="fill:#ffffff;fill-opacity:1"
         id="drive">
        <path
           style="fill:#ffffff;fill-opacity:1"
           id="path6"
           d="m 538.051,339.15 -175.951,-306 -173.4,0 0,0 175.951,306 173.4,0 z m -321.301,25.5 -86.7,153 334.05,0 86.701,-153 -334.051,0 z M 165.75,71.4 0,364.65 86.7,517.65 255,224.4 165.75,71.4 Z" />
      </g>
    </g>
  </g>
</svg>
